<svg preserveAspectRatio="none" overflow="visible" style="display: block;" width="490.612" height="435.816" viewBox="0 0 490.612 435.816" fill="none" xmlns="http://www.w3.org/2000/svg">
<g id="Group" filter="url(#filter0_d_0_76)">
<path id="Vector" d="M120.692 16.14C121.168 16.308 121.672 16.588 122.148 16.588C125.676 16.616 129.232 16.672 132.76 16.588C134.524 16.532 135.28 17.372 135.112 19.052C135.112 19.304 135.112 19.556 135.112 19.808C135.112 21.18 134.692 21.908 133.04 21.852C129.932 21.74 126.824 21.852 123.716 21.684C122.456 21.628 121.252 21.264 120.02 21.768H119.656C116.94 21.152 114.224 21.992 111.508 21.796C108.764 21.6 105.992 21.74 103.22 21.74C100.448 21.74 97.676 21.796 94.904 21.796C85.356 21.796 75.836 21.796 66.288 21.796C65.728 21.796 65.168 21.516 64.58 21.46C63.88 21.432 63.18 21.46 62.48 21.544C62.116 21.572 61.696 21.852 61.388 21.74C60.212 21.348 59.064 21.852 57.888 21.796H57.748C56.432 22.692 54.836 22.356 53.436 22.832C51.672 23.448 49.936 24.092 48.228 24.792C46.184 25.632 44.14 26.444 42.208 27.48C40.444 28.432 38.82 29.664 37.168 30.784C36.3 31.372 35.404 31.96 34.536 32.576L34.2 32.912C32.884 34.704 31.512 36.468 30.336 38.344C29.44 39.744 28.796 41.312 28.04 42.796C27.424 43.972 26.696 45.12 26.248 46.352C25.856 47.388 25.772 48.564 25.492 49.656C25.24 50.636 24.876 51.616 24.652 52.596C24.428 53.548 24.26 54.5 24.204 55.452C24.148 56.628 24.204 57.832 24.204 59.036C24.204 59.904 24.344 60.8 23.588 61.556C23.392 61.752 23.42 62.284 23.42 62.648C23.42 66.008 23.42 69.368 23.42 72.728C23.42 73.372 22.944 74.072 23.056 74.688C23.308 76.312 22.72 77.992 23.084 79.504C23.532 81.212 23.392 82.864 23.42 84.544C23.504 87.652 23.476 90.76 23.42 93.868C23.42 94.568 23.168 95.268 23.084 95.968C23 96.584 22.804 97.312 23 97.844C23.728 99.916 23.392 102.044 23.42 104.144C23.476 108.54 23.42 112.908 23.42 117.304C23.42 119.124 23.504 120.972 23.42 122.792C23.364 124.08 22.832 125.424 23 126.656C23.84 132.452 23.14 138.276 23.392 144.1V144.492C23.448 148.468 21.992 148.412 18.548 148.524C17.904 148.524 17.652 148.132 17.652 147.544C17.652 147.04 17.652 146.536 17.652 146.004C17.652 119.908 17.652 118.368 17.652 92.244C17.652 90.48 17.316 88.744 17.12 86.98L16.84 62.032C16.84 62.032 16 57.3 16 55.004L16.308 54.808C16.476 53.492 15.972 52.54 16.896 51.7C17.064 51.532 16.924 50.972 16.896 50.608C16.84 50.272 16.56 49.88 16.644 49.6C16.868 48.872 17.232 48.172 17.568 47.444C18.38 45.764 19.164 44.084 20.032 42.404C20.34 41.788 20.788 41.256 21.236 40.696C21.852 39.912 22.748 39.24 23.14 38.372C23.476 37.56 24.036 37.112 24.596 36.552C25.744 35.432 26.892 34.284 27.956 33.08C28.824 32.1 29.44 30.812 30.448 29.972C32.492 28.292 34.704 26.836 36.832 25.296C37.42 24.876 38.036 24.484 38.68 24.148C40.276 23.28 41.872 22.356 43.524 21.628C44.868 21.04 46.296 20.676 47.668 20.172C48.172 20.004 48.62 19.724 49.096 19.472C50.188 18.912 51.252 18.212 52.4 17.82C53.492 17.456 54.724 17.484 55.872 17.232C57.188 16.952 58.476 16.56 59.792 16.196L59.932 16H120.776L120.692 16.14Z" fill="#75C9E6"/>
<path id="Vector_2" d="M368.632 419.732C368.156 419.564 367.652 419.284 367.176 419.284C363.648 419.256 360.092 419.2 356.564 419.284C354.8 419.34 354.044 418.5 354.212 416.82C354.212 416.568 354.212 416.316 354.212 416.064C354.212 414.692 354.632 413.964 356.284 414.02C359.392 414.132 362.5 414.02 365.608 414.188C366.868 414.244 368.072 414.608 369.304 414.104H369.668C372.384 414.72 375.1 413.88 377.816 414.076C380.56 414.272 383.332 414.132 386.104 414.132C388.876 414.132 391.648 414.076 394.42 414.076C403.968 414.076 413.488 414.076 423.036 414.076C423.596 414.076 424.156 414.356 424.744 414.412C425.444 414.44 426.144 414.412 426.844 414.328C427.208 414.3 427.628 414.02 427.936 414.132C429.112 414.524 430.26 414.02 431.436 414.076H431.576C432.892 413.18 434.488 413.516 435.888 413.04C437.652 412.424 439.388 411.78 441.096 411.08C443.14 410.24 445.184 409.428 447.116 408.392C448.88 407.44 450.504 406.208 452.156 405.088C453.024 404.5 453.92 403.912 454.788 403.296L455.124 402.96C456.44 401.168 457.812 399.404 458.988 397.528C459.884 396.128 460.528 394.56 461.284 393.076C461.9 391.9 462.628 390.752 463.076 389.52C463.468 388.484 463.552 387.308 463.832 386.216C464.084 385.236 464.448 384.256 464.672 383.276C464.896 382.324 465.064 381.372 465.12 380.42C465.176 379.244 465.12 378.04 465.12 376.836C465.12 375.968 464.98 375.072 465.736 374.316C465.932 374.12 465.904 373.588 465.904 373.224C465.904 369.864 465.904 366.504 465.904 363.144C465.904 362.5 466.38 361.8 466.268 361.184C466.016 359.56 466.604 357.88 466.24 356.368C465.792 354.66 465.932 353.008 465.904 351.328C465.82 348.22 465.848 345.112 465.904 342.004C465.904 341.276 466.212 340.548 466.296 339.792C466.38 339.204 466.52 338.532 466.324 338.028C465.568 335.956 465.932 333.828 465.904 331.728C465.848 327.332 465.904 322.964 465.904 318.568C465.904 316.748 465.82 314.9 465.904 313.08C465.96 311.792 466.492 310.448 466.324 309.216C465.484 303.42 466.184 297.596 465.932 291.772V291.38C465.876 287.404 467.332 287.46 470.776 287.348C471.42 287.348 471.672 287.74 471.672 288.328C471.672 288.832 471.672 289.336 471.672 289.868C471.672 315.964 471.672 324.812 471.672 350.908C471.672 352.672 471.868 360.988 472.512 361.576L472.456 365.132L472.904 367.568C473.044 370.06 473.576 372.552 474.22 373.7L474.612 374.008V380.896L474.304 381.092C474.136 382.408 473.324 383.276 472.4 384.116C472.232 384.284 472.372 384.844 472.4 385.208C472.456 385.544 472.736 385.936 472.652 386.216C472.428 386.944 472.064 387.644 471.728 388.372C470.916 390.052 470.132 391.732 469.264 393.412C468.956 394.028 468.508 394.56 468.06 395.12C467.444 395.904 466.548 396.576 466.156 397.444C465.82 398.256 465.26 398.704 464.7 399.264C463.552 400.384 462.404 401.532 461.34 402.736C460.472 403.716 459.856 405.004 458.848 405.844C456.804 407.524 454.592 408.98 452.464 410.52C451.876 410.94 451.26 411.332 450.616 411.668C449.02 412.536 447.424 413.46 445.772 414.188C444.428 414.776 443 415.14 441.628 415.644C441.124 415.812 440.676 416.092 440.2 416.344C439.108 416.904 438.044 417.604 436.896 417.996C435.804 418.36 434.572 418.332 433.424 418.584C432.108 418.864 430.82 419.256 429.504 419.62L429.364 419.816H368.52L368.632 419.732Z" fill="#75C9E6"/>
<path id="Vector_3" d="M150.344 353.876C144.548 353.876 138.752 353.876 132.956 353.876C132.228 353.876 131.528 353.652 130.8 353.68C130.016 353.68 129.232 353.876 128.448 353.904C126.152 353.932 123.856 353.904 121.56 353.904C117.724 353.904 113.888 354.072 110.052 353.848C106.832 353.652 103.64 353.26 100.42 353.288C100.14 353.288 99.832 353.176 99.608 353.008C97.536 351.636 95.436 350.32 93.42 348.836C92.384 348.08 91.516 347.072 90.592 346.176C89.78 345.392 88.912 344.636 88.24 343.74C87.624 342.928 86.924 342.228 86.476 341.22C85.58 339.288 85.076 337.216 84.208 335.34C83.508 333.856 83.284 332.344 83.004 330.776C82.696 329.124 81.94 327.556 81.268 326.016C80.876 325.092 81.1 323.776 81.912 323.02L81.8 322.152C81.1 321.592 80.848 321.088 81.604 320.388L81.8 319.8C81.996 317.056 82.276 314.312 82.332 311.568C82.416 306.724 82.332 301.852 82.332 297.008C82.332 292.276 82.332 287.544 82.276 282.84C82.276 282.476 82.108 282.112 82.052 281.748C81.996 281.244 81.828 280.712 81.912 280.264C82.64 277.184 82.276 274.104 82.108 271.024C82.108 270.744 82.22 270.436 82.192 270.156C82.136 268.896 82.024 267.636 81.968 266.376C81.94 265.872 81.856 265.34 81.996 264.892C82.388 263.66 82.332 262.512 81.996 261.28C81.772 260.524 81.744 259.656 81.912 258.9C82.5 255.904 82.472 252.936 81.912 249.968V249.464C82.612 247.336 82.164 245.18 82.22 243.024C82.22 241.932 81.968 240.84 81.884 239.72C81.856 239.3 81.94 238.88 81.968 238.46C81.968 237.9 81.968 237.368 81.968 236.808L81.856 236.332C82.416 235.156 81.8 233.896 82.08 232.692L81.968 231.992C81.912 231.488 81.716 230.928 81.856 230.48C82.78 227.68 82.164 224.824 82.276 221.996C82.332 220.288 81.996 218.58 81.856 216.9C81.828 216.508 81.8 216.144 81.856 215.752C81.968 214.632 82.192 213.484 82.248 212.364C82.248 211.804 81.884 211.216 81.912 210.656C81.968 209.396 82.164 208.164 82.276 206.904C82.276 206.568 82.164 206.26 82.164 205.924C82.136 204.832 82.136 203.768 82.108 202.676C82.108 201.864 82.108 201.024 82.108 200.212L81.968 199.624C82.64 198.364 82.136 197.188 81.94 195.928C81.828 195.228 82.36 194.444 82.332 193.716C82.276 191.924 82.332 190.132 82.052 188.312C81.772 186.436 81.408 184.364 82.276 182.432V182.32C82.248 181.116 82.164 179.912 82.136 178.708C82.136 177.756 82.136 176.776 82.164 175.824C82.164 175.208 82.388 174.536 82.22 173.948C81.884 172.772 81.856 171.68 82.22 170.476C82.5 169.524 82.36 168.46 82.304 167.424C82.22 165.828 81.968 164.232 81.912 162.636C81.856 161.432 81.576 160.172 82.304 159.024V158.52C81.66 156.504 81.8 154.516 82.332 152.528C82.388 152.304 82.332 152.024 82.332 151.772C82.192 149.28 81.94 146.76 81.94 144.268C81.94 142.476 82.248 140.656 82.36 138.864C82.388 138.332 82.164 137.8 82.108 137.268C82.08 136.932 82.024 136.596 82.108 136.288C82.528 134.916 82.388 133.572 82.108 132.172C81.884 131.08 82.108 129.932 82.136 128.784C82.136 128.084 82.136 127.412 82.108 126.712C82.108 126.208 81.968 125.732 81.996 125.228C82.08 123.94 82.304 122.652 82.276 121.336C82.22 118.228 81.968 115.12 81.94 112.012C81.94 110.5 82.22 108.988 82.332 107.476C82.332 107.196 82.136 106.916 82.136 106.636C82.136 105.992 82.052 105.292 82.22 104.676C82.556 103.528 82.416 102.884 81.52 102.072C80.876 101.484 81.016 100.672 81.408 100.084C82.108 99.048 82.36 97.984 82.416 96.752C82.444 96.136 82.808 95.52 83.116 94.96C83.872 93.448 84.656 91.936 85.44 90.424C85.58 90.144 85.72 89.752 85.972 89.64C87.26 88.996 88.604 88.408 89.92 87.792L90.172 87.736C90.62 87.54 91.18 87.092 91.488 87.204C92.3 87.568 93 88.184 93.756 88.66C94.624 89.22 95.016 90.312 96.164 90.564C96.556 90.648 96.92 91.18 97.2 91.572C98.236 93.056 99.272 94.568 98.908 96.528L99.16 97.2C99.664 97.704 99.44 98.068 99.16 98.628C98.74 99.524 98.46 100.56 98.432 101.54C98.292 104.648 98.488 107.784 98.208 110.864C98.068 112.404 98.236 113.888 98.236 115.4C98.292 142.196 98.264 168.992 98.264 195.788C98.264 202.312 98.264 208.808 98.264 215.332C98.264 215.948 98.04 216.564 97.956 217.152V217.712C98.068 218.188 98.348 218.72 98.236 219.168C97.788 221.268 98.404 223.34 98.292 225.44C98.18 227.652 98.292 229.864 98.292 232.076C98.292 234.26 98.292 236.416 98.292 238.6C98.292 240.784 98.292 242.94 98.292 245.124C98.292 247.336 98.292 249.548 98.292 251.76C98.292 253.972 98.292 256.1 98.292 258.284C98.292 258.816 98.068 259.32 97.984 259.852V260.412C98.012 261.056 98.04 261.672 98.04 262.316V263.072C98.124 263.436 98.236 263.8 98.292 264.164C98.488 265.34 97.648 266.376 98.264 267.72C98.74 268.756 98.348 270.156 98.432 271.388C98.516 272.536 98.74 273.656 98.796 274.776C98.796 275.476 98.628 276.204 98.544 276.904L98.488 277.66C98.6 278.78 98.796 279.928 98.796 281.048C98.824 293.62 98.796 306.192 98.824 318.736C98.824 320.08 98.88 321.34 99.552 322.628C100.196 323.86 100.224 325.4 100.7 326.744C101.484 328.872 102.324 331 104.732 331.924C105.46 332.204 106.16 332.736 106.748 333.296C107.98 334.416 109.66 334.276 111.004 334.976C112.628 335.844 114.532 335.34 116.072 336.208C117.668 337.132 119.292 336.992 120.972 336.964C121.588 336.964 122.176 337.188 122.792 337.328L123.408 337.412C126.068 336.516 128.812 337.076 131.5 336.992C135.532 336.88 139.592 336.936 143.624 336.992C144.436 336.992 145.276 337.244 146.088 337.356L146.704 337.412C148.328 337.272 149.98 336.992 151.604 337.02C153.788 337.076 155.972 337.328 158.156 337.524C158.436 337.524 158.716 337.692 158.968 337.804L159.248 338.056L159.976 338.196C161.068 337.244 162.356 338.84 163.42 337.888L163.924 337.608C165.072 338.448 166.5 336.796 167.704 338.084C168.012 338.392 169.16 338.084 169.804 337.86C170.28 337.692 170.476 337.636 170.896 337.944C171.512 338.42 172.24 338.392 172.884 337.888C173.5 337.412 174.06 337.356 174.704 337.888C174.928 338.084 175.376 338.084 175.712 338.028C176.3 337.916 176.86 337.664 177.42 337.468C177.756 337.356 178.232 337.328 178.456 337.104C179.016 336.544 179.576 336.096 180.416 336.152L180.836 335.928C181.144 334.808 182.292 334.892 182.992 334.388C183.888 333.716 184.7 332.96 185.484 332.148C186.1 331.532 186.828 330.944 186.688 329.908V329.796C188.368 328.536 187.584 326.156 189.04 324.784C189.18 324.644 188.984 324.112 188.9 323.776L188.564 323.16C189.432 322.348 188.648 321.256 189.068 320.36C189.18 320.108 189.152 319.772 189.18 319.492C189.32 318.484 189.488 317.504 189.628 316.496V315.74C189.32 314.2 189.376 312.688 189.628 311.148C189.74 310.56 189.46 309.916 189.376 309.3C189.348 308.964 189.32 308.628 189.348 308.32L189.516 307.984C189.46 306.276 189.18 304.512 189.348 302.832C189.488 301.432 189.236 300.116 189.264 298.772C189.292 297.344 189.88 295.944 189.264 294.488C189.18 294.264 189.404 293.928 189.404 293.648C189.46 292.976 189.656 292.276 189.488 291.66C189.152 290.344 188.928 289.084 189.488 287.824L189.544 287.32C188.592 283.708 189.236 280.04 189.18 276.4C189.068 267.496 189.18 258.592 189.18 249.688C189.18 240.392 189.152 231.124 189.152 221.828C189.152 210.152 189.152 198.504 189.152 186.828C189.152 185.708 189.068 184.644 188.592 183.524C188.032 182.208 187.92 180.64 187.892 179.184C187.808 174.06 187.836 168.964 187.808 163.868C187.808 163.392 187.556 162.944 187.416 162.468C187.304 162.104 187.164 161.74 187.136 161.376C187.108 159.808 187.192 158.212 187.08 156.644C186.968 154.88 186.968 153.032 186.436 151.38C185.932 149.868 185.456 148.384 185.232 146.788C185.176 146.368 184.672 146.032 184.56 145.612C184.168 144.184 183.888 142.728 183.524 141.328C183.412 140.88 183.16 140.432 182.936 140.012C182.768 139.676 182.516 139.368 182.348 139.032C181.424 136.988 180.528 134.944 179.604 132.9L179.212 132.424C178.624 131.584 178.008 130.744 177.42 129.876C176.244 128.168 175.068 126.46 173.668 124.892C172.632 123.744 171.652 122.428 171.4 120.776C171.372 120.524 171.232 120.216 171.036 120.02C170.14 119.208 169.272 118.368 168.292 117.668C167.2 116.856 165.996 116.184 164.876 115.428C163.924 114.784 163.028 114.028 162.048 113.384C160.564 112.376 159.08 111.424 157.568 110.444C156.896 110.024 156.14 109.716 155.552 109.184C154.18 107.98 152.528 107.476 150.848 106.944C149.784 106.608 148.748 106.216 147.684 105.88C145.416 105.18 143.148 104.536 140.74 104.34C140.012 104.284 139.312 103.976 138.584 103.78L137.856 103.612C136.176 103.416 134.356 103.528 132.844 102.912C131.22 102.268 129.512 102.492 127.916 101.96C127.328 101.764 126.656 101.792 126.012 101.764C124.22 101.736 122.428 101.792 120.636 101.708C118.956 101.624 117.22 101.596 115.624 101.12C114.224 100.728 112.992 99.804 112.292 98.292C111.592 96.724 111.004 95.24 111.088 93.476C111.172 92.16 111.676 91.236 112.656 90.48C113.3 89.976 114.112 89.612 114.644 89.024C115.344 88.268 116.156 88.436 116.996 88.38C118.452 88.268 119.908 87.904 121.364 87.876C125.144 87.792 128.98 87.596 132.732 87.96C135.14 88.212 137.66 87.876 139.9 88.548C142.196 89.22 144.604 88.856 146.788 89.724C147.936 90.172 149.112 90.396 150.288 90.592C150.596 90.648 150.876 90.928 151.1 91.152C151.688 91.824 152.36 92.216 153.284 92.216C153.648 92.216 154.124 92.272 154.348 92.524C155.524 93.756 157.232 93.924 158.632 94.736C160.312 95.688 162.048 96.556 163.756 97.48C164.736 98.012 165.688 98.572 166.64 99.132C167.34 99.524 167.732 100.224 168.6 100.56C169.804 101.036 170.756 102.156 171.82 102.996C172.436 103.472 173.108 103.864 173.696 104.368C174.088 104.676 174.396 105.096 174.732 105.432C176.104 106.804 177.896 107.728 178.876 109.548C179.296 110.304 180.388 110.724 180.78 111.508C181.48 112.936 182.88 113.664 183.804 114.896C184.812 116.24 185.484 118.172 187.416 118.788L187.78 119.404C188.2 120.132 188.62 120.832 189.04 121.56C189.208 121.84 189.46 122.148 189.46 122.484C189.572 124.528 190.944 125.984 191.84 127.664C192.904 129.68 194.08 131.64 195.116 133.656C195.844 135.056 196.46 136.484 197.104 137.912C197.3 138.36 197.356 138.892 197.468 139.368C198.056 141.412 198.868 143.372 199.064 145.5C199.12 146.228 199.4 146.956 199.624 147.684L200.1 147.964C200.492 147.46 200.8 147.768 200.968 148.132C201.08 148.356 200.996 148.664 200.996 148.916C200.996 149.196 200.828 149.56 200.968 149.756C201.976 151.184 202.088 152.78 202.088 154.46C202.088 155.524 202.116 156.588 202.144 157.652L202.2 158.268C203.236 159.528 202.844 161.04 202.844 162.44C202.844 214.352 202.844 266.292 202.844 318.204C202.844 321.564 202.844 324.924 202.816 328.312C202.816 329.096 202.76 329.824 202.284 330.58C201.808 331.336 201.864 332.456 201.584 333.352C201.192 334.668 200.688 335.928 200.212 337.216C199.848 338.224 199.12 339.204 199.092 340.212C199.092 342.172 198.224 343.768 197.384 345.392C196.32 347.464 194.92 349.284 193.1 350.684C192.456 351.188 191.588 351.748 190.524 351.076C189.712 350.544 189.04 351.328 188.34 351.692C187.948 351.888 187.556 352.28 187.136 352.336C185.932 352.532 185.512 353.764 184.504 354.212C184.028 354.408 183.524 354.744 183.02 354.772C178.988 354.8 174.928 354.772 170.896 354.772C170.616 354.772 170.224 354.828 170.028 354.66C169.076 353.82 167.928 354.1 166.864 354.1C161.292 354.1 155.692 354.1 150.12 354.1L150.344 353.876Z" fill="#75C9E6"/>
<path id="Vector_4" d="M372.832 354.632C369.332 354.632 365.832 354.66 362.36 354.632C361.688 354.632 361.016 354.296 360.316 354.128C360.036 354.044 359.756 353.932 359.476 353.932C353.708 353.764 347.94 353.484 342.172 353.428C332.036 353.344 321.9 353.428 311.764 353.372C310.98 353.372 310.168 352.924 309.384 352.812C308.656 352.728 307.9 352.784 307.172 352.868C306.612 352.952 306.08 353.344 305.52 353.344C297.904 353.372 290.26 353.372 282.644 353.372C282.308 353.372 281.888 353.372 281.636 353.232C280.32 352.336 278.864 352.7 277.436 352.644C275.952 352.588 274.468 352.56 272.956 352.532C271.584 352.476 270.352 352.112 269.12 351.44C267.804 350.74 266.376 350.208 264.948 349.704C262.036 348.64 260.972 346.316 260.692 343.46C260.608 342.76 260.748 342.032 260.132 341.444C259.936 341.248 259.936 340.8 259.936 340.464C259.936 339.064 259.908 337.664 259.964 336.236C259.964 335.76 260.272 335.312 260.412 334.836C260.524 334.528 260.608 334.22 260.692 333.884C260.888 333.128 261.028 332.316 261.336 331.588C261.644 330.804 262.148 330.076 262.512 329.292C263.38 327.416 264.612 325.82 266.04 324.308C266.824 323.468 267.384 322.376 268.168 321.536C270.492 319.1 272.844 316.748 275.224 314.368C275.588 314.004 276.204 313.864 276.596 313.5C277.044 313.108 277.38 312.548 277.772 312.072C277.996 311.792 278.192 311.344 278.5 311.204C280.236 310.532 281.188 308.936 282.532 307.816C283.988 306.64 285.304 305.296 286.732 304.092C287.544 303.392 288.468 302.804 289.336 302.16L289.588 301.74C290.484 300.032 291.912 298.884 293.508 297.904C293.816 297.708 294.096 297.4 294.264 297.092C294.824 296.028 295.636 295.244 296.616 294.544C297.288 294.068 297.708 293.284 298.268 292.668C298.688 292.22 299.108 291.66 299.64 291.408C301.208 290.652 302.132 289.224 303.364 288.104C304.736 286.872 305.968 285.5 307.256 284.212C308.824 282.644 310.392 281.076 311.932 279.536C313.444 278.024 314.928 276.512 316.468 275.028C316.776 274.72 317.252 274.58 317.616 274.328C318.372 273.824 318.876 273.18 319.24 272.34C319.436 271.864 319.912 271.416 320.36 271.192C322.068 270.352 323.132 268.84 324.448 267.552C325.484 266.544 326.24 265.256 327.276 264.276C328.816 262.764 330.552 261.476 332.092 259.964C333.688 258.396 335.116 256.66 336.684 255.036C337.356 254.336 338.168 253.776 338.896 253.132C339.512 252.572 340.128 252.012 340.716 251.396C343.18 248.876 345.616 246.356 348.108 243.864C349.592 242.38 351.132 240.952 352.616 239.496C353.428 238.712 354.072 237.704 354.996 237.088C356.284 236.192 357.208 234.96 358.272 233.868C359.868 232.216 361.688 230.816 363.144 228.968C364.572 227.148 366.532 225.664 367.708 223.704C368.912 221.716 370.984 219.896 370.396 217.124V216.62C370.984 215.64 370.676 214.716 370.536 213.652C370.312 212.112 369.192 211.524 368.408 210.544C368.1 210.152 366.924 210.124 367.848 209.228C367.484 208.864 367.176 208.304 366.756 208.192C365.02 207.716 363.368 206.792 361.464 207.044L360.736 206.876C360.148 206.316 359.616 206.232 358.972 206.848C358.804 207.016 358.356 206.932 358.048 206.848C357.404 206.708 356.788 206.372 356.144 206.372C353.204 206.316 350.264 206.372 347.324 206.372C346.96 206.372 346.372 206.456 346.316 206.652C345.84 207.912 344.86 207.184 344.104 207.268C343.572 207.324 343.04 207.156 342.508 207.044C341.948 206.904 341.444 206.708 340.884 206.568C340.576 206.484 340.24 206.372 339.904 206.372C338.532 206.484 337.16 206.68 335.788 206.708C334.948 206.708 334.08 206.428 333.24 206.372C332.512 206.316 331.756 206.176 331.392 207.24C331.168 207.828 330.496 207.576 330.132 207.156C329.712 206.708 329.404 206.204 328.76 206.904C328.62 207.044 328.088 206.848 327.752 206.764C327.444 206.68 326.968 206.372 326.884 206.484C326.24 207.1 325.708 206.596 325.064 206.54C322.992 206.372 320.864 205.868 318.848 206.876L318.26 206.96C317.336 206.54 316.384 206.176 315.572 205.616C314.508 204.888 314.424 202.228 315.348 201.304C316.692 199.96 318.4 199.148 320.024 198.252C320.724 197.86 321.676 197.916 322.488 197.832L322.908 198.224C323.216 199.148 324.028 199.008 324.448 198.672C325.148 198.056 325.932 198.084 326.716 198.084C335.928 198.084 345.112 198.084 354.324 198.084C357.572 198.084 360.792 198.084 364.04 198.14C364.6 198.14 365.132 198.448 365.692 198.616C365.972 198.7 366.252 198.812 366.532 198.84C367.848 199.036 369.304 198.952 370.508 199.456C372.44 200.268 374.764 200.548 375.996 202.676C376.36 203.32 376.948 203.88 377.536 204.3C378.628 205.028 378.88 206.232 379.524 207.24C379.916 207.856 380.448 208.444 381.008 208.92C382.268 209.956 382.352 211.412 382.464 212.784C382.576 213.876 382.212 215.024 382.072 216.144C382.016 216.648 381.932 217.152 381.96 217.656C381.988 218.832 381.932 219.924 381.036 220.848C380.812 221.072 380.756 221.548 380.672 221.912C380.56 222.444 380.84 223.032 379.776 223.004C379.272 223.004 378.712 224.04 378.264 224.656C377.984 225.048 377.368 225.384 378.012 226.084C378.376 226.504 377.536 227.568 376.668 227.736C376.08 227.848 376.052 228.156 375.8 228.604C375.156 229.64 374.148 230.452 373.252 231.32C372.888 231.656 372.216 231.824 372.076 232.188C371.656 233.252 370.844 233.756 369.976 234.372C369.22 234.904 368.744 235.8 368.1 236.528C367.764 236.92 367.4 237.256 367.064 237.62C366.7 237.984 366.364 238.376 366 238.74L365.664 239.132C364.04 240.196 363.144 242.016 361.632 243.164C359.952 244.424 358.776 246.16 357.264 247.588C356.508 248.288 355.836 249.1 355.052 249.8C354.324 250.444 353.4 250.92 352.728 251.62C351.272 253.132 349.984 254.756 348.556 256.268C347.352 257.556 346.092 258.788 344.832 260.02C344.216 260.636 343.488 261.168 343.012 261.896C342.424 262.792 341.78 263.52 340.856 264.08C340.492 264.304 340.352 264.92 340.044 265.284C339.316 266.152 338.588 267.048 337.748 267.804C336.348 269.008 335.76 270.66 335.62 272.34C335.508 273.824 335.732 275.392 336.18 276.82C336.544 277.968 337.384 279.004 338.112 280.012C339.092 281.356 340.128 282.644 341.164 283.932C342.032 284.996 342.9 286.116 343.936 286.984C346.288 288.944 347.94 291.576 350.404 293.424C351.748 294.432 353.064 295.58 354.128 296.868C355.192 298.156 356.34 299.416 357.208 300.76C357.964 301.908 358.412 303.56 357.684 305.324C357.152 306.64 356.424 307.424 355.276 308.068C354.548 308.488 353.904 308.152 353.372 307.872C351.076 306.696 349.396 304.792 347.66 302.944C345.812 300.956 343.768 299.164 341.864 297.204C341.08 296.392 339.876 295.972 339.456 294.74L338.672 294.18C338.168 293.704 337.692 293.2 337.188 292.724L336.572 292.164C336.292 291.94 335.76 291.8 335.676 291.52C335.256 289.952 333.52 289.868 332.68 288.748C332.316 288.244 331.644 287.964 331.112 287.572C330.468 287.124 329.964 286.424 329.068 286.452L328.62 286.228C326.912 284.548 324.7 285.052 322.824 285.388C320.248 285.864 317.756 286.956 315.6 288.608L314.956 289.196C314.508 290.4 313.36 290.82 312.436 291.492C312.1 291.744 311.54 291.828 311.372 292.164C310.364 294.04 308.376 294.88 307.032 296.392C306.5 297.008 305.716 297.4 305.156 297.96C304.68 298.436 304.316 299.08 303.868 299.584C303.616 299.864 303.252 300.032 302.972 300.256C302.468 300.676 301.964 301.096 301.516 301.572C300.844 302.3 300.312 303.196 299.556 303.84C298.828 304.484 297.848 304.848 297.064 305.464C296.476 305.94 296.056 306.668 295.496 307.228C293.9 308.852 292.276 310.448 290.736 312.1C290.288 312.576 289.896 313.192 289.756 313.808C289.588 314.536 289.28 314.816 288.552 314.816C287.824 314.816 287.432 315.18 287.124 315.852C286.928 316.272 286.34 316.524 285.976 316.888C285.024 317.84 284.1 318.82 283.148 319.772L282.672 320.192C281.412 320.556 280.796 321.452 280.236 322.572C279.984 323.048 279.34 323.328 279.004 323.804C277.828 325.372 276.708 326.996 275.588 328.592V329.18C275.812 329.6 276.204 329.936 276.288 330.356C276.428 330.888 276.624 331.616 275.504 331.28C274.636 331.028 273.992 331.672 273.88 332.596C273.712 333.8 273.516 335.004 273.404 336.208C273.348 336.74 273.32 337.384 273.544 337.832C274.328 339.456 275.196 341.052 276.064 342.62C276.204 342.9 276.568 343.068 276.876 343.236C278.444 343.992 279.872 345 281.776 344.944C285.724 344.832 289.7 344.944 293.648 344.916C294.768 344.916 295.888 344.832 296.98 344.356L297.708 344.44C298.38 344.608 299.052 344.916 299.724 344.916C310.504 344.944 321.284 344.944 332.064 344.972C335.508 344.972 338.952 344.916 342.424 345C347.184 345.112 351.916 345.336 356.676 345.476C357.6 345.504 358.552 345.42 359.476 345.504C360.148 345.56 360.82 345.98 361.492 346.008C363.816 346.092 366.196 346.344 368.464 345.952C369.696 345.756 370.704 345.28 371.88 345.952L372.496 345.644C372.748 345.448 372.972 345.028 373.196 345.028C374.428 345.028 375.632 345.224 376.864 345.224C378.572 345.224 380.308 345.28 381.988 345.084C383.248 344.944 384.48 344.552 385.656 344.076C387.056 343.516 388.4 342.788 389.772 342.116C390.444 341.808 391.144 341.5 391.76 341.108C392.348 340.744 393.02 340.352 393.328 339.792C393.916 338.7 394.868 337.944 395.624 337.048C396.1 336.46 396.38 335.704 396.716 335.004C396.996 334.416 397.22 333.828 397.5 333.24C398.34 331.392 397.864 329.376 398.06 327.472C398.144 326.716 397.948 325.96 398.592 325.316C398.788 325.12 398.732 324.588 398.732 324.224C398.732 320.444 398.732 316.636 398.816 312.856C398.844 311.232 399.096 309.636 399.236 308.012C399.264 307.648 399.264 307.228 399.152 306.892C398.76 305.464 399.096 304.68 400.44 303.98C401.028 303.672 401.588 303.308 402.204 303.028H403.044C404.192 303.812 405.396 304.512 406.432 305.408C406.824 305.744 407.076 306.5 407.076 307.06C407.16 309.608 407.076 312.184 407.132 314.732C407.188 317.196 407.468 319.632 407.468 322.096C407.468 325.008 407.244 327.948 407.104 330.86L406.992 331.476C406.32 331.952 406.32 332.428 406.88 332.96V333.212C406.012 333.968 406.236 335.256 405.564 336.096L405.088 336.768C404.976 338.084 404.136 339.036 403.52 340.128C402.96 341.136 402.484 342.2 401.896 343.18C400.916 344.804 399.824 346.344 398.48 347.716C396.856 349.368 394.896 350.376 392.852 351.412C391.396 352.14 389.968 352.448 388.428 352.672C387.336 352.84 386.3 353.568 385.236 354.016C384.592 354.268 383.92 354.604 383.248 354.604C379.804 354.66 376.36 354.604 372.888 354.604" fill="#75C9E6"/>
<path id="Vector_5" d="M100.084 30.364C106.552 30.364 113.02 30.392 119.516 30.364C121.7 30.364 123.912 29.776 126.068 29.944C137.24 30.896 148.412 30.084 159.584 30.392C160.032 30.392 160.48 30.728 160.928 30.868C161.208 30.952 161.488 31.092 161.768 31.092C163.84 31.176 165.52 31.988 166.864 33.64C167.508 34.452 167.368 35.236 167.144 36.02C166.752 37.252 166.584 38.736 164.708 38.68C164.26 38.68 163.84 39.016 163.392 39.156C163.084 39.268 162.748 39.408 162.44 39.408C156.168 39.408 149.924 39.464 143.652 39.352C142.756 39.352 141.86 39.044 140.936 39.38L140.096 39.268C139.312 38.428 138.304 38.652 137.352 38.652C130.576 38.596 123.8 38.568 117.052 38.54C113.048 38.54 109.044 38.596 105.04 38.652C104.62 38.652 104.228 38.96 103.808 39.072C103.276 39.212 102.744 39.38 102.212 39.38C98.432 39.408 94.624 39.38 90.844 39.408C90.256 39.408 89.696 39.576 89.108 39.66L88.744 39.744C86.448 39.436 84.208 40.164 81.912 39.912C81.492 39.856 81.044 40.248 80.596 40.388C80.26 40.5 79.896 40.612 79.532 40.64C76.452 40.836 73.344 40.92 70.292 41.2C69.284 41.284 68.276 41.788 67.296 42.208C65.112 43.132 62.928 44.056 60.772 45.064C60.184 45.344 59.764 45.932 59.26 46.38C58.308 47.248 57.244 48.032 56.404 48.984C55.76 49.712 55.368 50.692 54.808 51.532C54.192 52.456 53.548 53.38 52.792 54.192C52.26 54.78 52.204 55.816 51.168 55.956L50.944 56.656C50.496 57.384 50.048 58.14 49.488 58.784C49.068 59.26 48.06 61.108 48.004 61.808C47.836 64.44 48.116 67.24 47.36 69.704C46.352 72.924 47.22 76.116 46.688 79.224C45.764 84.628 46.38 90.06 46.24 95.492C46.128 100.896 46.24 106.3 46.212 111.732C46.212 112.432 46.296 113.132 45.624 113.72C45.4 113.916 45.456 114.504 45.456 114.924C45.456 122.12 45.736 129.344 45.372 136.512C45.092 142.028 44.98 147.516 44.952 153.032L44.84 153.76C43.916 154.46 44.224 155.44 44.224 156.336C44.196 158.968 44.42 161.628 44.14 164.26C43.888 166.864 43.58 169.468 43.72 172.072C43.804 173.528 44.364 175.04 44.14 176.44C43.608 179.828 44.14 183.244 43.58 186.548C43.16 189.068 43.244 191.504 43.216 193.996C43.16 204.272 43.104 214.52 43.216 224.796C43.244 227.988 43.776 231.18 43.748 234.4C43.748 235.296 43.888 236.136 43.748 237.06C43.608 237.872 43.972 238.768 44.084 239.636C44.14 240.084 44.196 240.56 44.196 241.036C44.196 243.976 44.196 246.916 44.224 249.856C44.224 250.444 44.672 251.032 44.7 251.62C44.784 253.972 44.784 256.352 44.812 258.704C44.056 259.096 44.308 259.516 44.784 259.936L44.952 260.412C45.176 261.644 44.112 263.968 42.992 264.556L42.656 264.696C41.312 266.46 39.576 265.788 37.896 265.508C37.476 265.452 37.028 265.452 36.636 265.312C36.216 265.144 35.768 264.92 35.432 264.584C34.704 263.828 34.004 263.016 33.332 262.204L32.884 261.476C32.688 258.396 32.1 255.26 32.436 252.236C32.716 249.828 32.744 247.42 32.772 245.04C32.772 243.36 32.436 241.68 32.352 240C32.324 239.3 32.576 238.6 32.688 237.9L32.744 237.284C31.904 235.94 32.436 234.456 32.268 233.056C32.184 232.44 32.044 231.824 31.932 231.236L31.848 231.012C32.8 227.288 31.792 223.452 32.38 219.756C33.136 214.968 32.576 210.18 32.772 205.392C32.772 204.692 32.548 203.992 32.436 203.292C32.38 203.012 32.268 202.676 32.352 202.424C32.94 200.632 32.1 198.868 32.296 197.076C32.492 195.2 32.716 193.296 32.772 191.42C32.856 188.788 32.772 186.128 32.828 183.496C32.828 182.824 33.192 182.18 33.388 181.508C33.472 181.144 33.584 180.752 33.556 180.388C33.472 179.044 33.976 177.588 32.94 176.356L32.856 175.74C32.996 174.284 32.212 172.884 32.744 171.372C32.996 170.672 32.744 169.888 32.128 169.272C31.428 168.572 31.4 167.592 31.82 166.724C32.044 166.304 32.24 165.8 32.24 165.324C32.296 162.776 32.24 160.2 32.324 157.652C32.436 154.32 32.632 150.988 32.828 147.628C32.828 147.348 32.912 147.012 33.08 146.788C33.416 146.424 33.248 146.2 33.164 145.752C32.94 144.688 33.08 143.54 33.108 142.448C33.108 142.196 33.472 141.972 33.5 141.692C33.724 140.124 34.004 138.528 34.088 136.932C34.144 136.064 33.836 135.196 33.696 134.328C33.64 134.048 33.556 133.74 33.556 133.46C33.64 131.36 33.556 129.26 33.92 127.132C34.312 124.696 34.284 122.092 33.92 119.628C33.724 118.144 33.864 116.828 33.976 115.4C34.144 113.356 34.004 111.312 34.088 109.268C34.088 108.708 34.396 108.176 34.564 107.644C34.676 107.252 34.788 106.832 34.788 106.412C34.816 104.032 34.816 101.652 34.788 99.244C34.788 98.32 34.956 97.396 34.228 96.584C34.032 96.36 34.088 95.856 34.088 95.464C34.088 91.04 34.032 86.616 34.06 82.164C34.06 81.072 34.256 80.064 34.592 78.972C34.984 77.712 35.208 76.172 34.34 74.8C34.088 74.38 34.312 73.624 34.396 73.036C34.452 72.616 34.76 72.196 34.788 71.776C34.844 71.02 34.788 70.236 34.816 69.48C34.984 66.568 35.124 63.656 35.432 60.744C35.544 59.764 36.132 58.812 36.468 57.832C36.636 57.356 36.552 56.768 36.776 56.348C37.616 54.78 38.148 53.072 39.324 51.672C40.304 50.524 41.004 49.152 41.928 47.948C42.852 46.744 44 45.708 44.84 44.476C45.904 42.936 47.5 42.04 48.76 40.808C50.076 39.52 51.588 38.736 53.072 37.784C54.864 36.608 56.852 35.852 58.644 34.732C59.708 34.088 60.716 33.696 61.92 33.416C62.564 33.276 63.152 32.716 63.936 32.66C64.804 32.604 65.644 32.324 66.512 32.24C67.38 32.156 68.192 32.128 69.06 31.708C70.152 31.204 71.496 31.12 72.756 30.98C73.988 30.868 75.22 30.952 76.452 30.924C77.32 30.924 78.188 31.064 78.972 30.364C79.252 30.112 79.868 30.196 80.344 30.196C86.952 30.196 93.532 30.196 100.14 30.196L100.084 30.364Z" fill="#75C9E6"/>
<path id="Vector_6" d="M457.056 244.76C457.056 253.216 457.392 259.096 456.972 264.948C456.3 274.3 456.86 283.652 456.608 293.004C456.608 293.704 456.748 294.432 456.02 294.964C455.824 295.104 455.852 295.608 455.852 295.916C455.852 308.32 455.852 320.696 455.852 333.1C455.852 333.548 456.16 334.024 456.3 334.472C456.412 334.864 456.58 335.284 456.58 335.676C456.58 339.848 456.58 344.02 456.58 348.192C456.58 348.5 456.636 348.92 456.468 349.06C455.488 349.844 455.852 350.936 455.824 351.888C455.796 355.248 456.076 358.636 455.74 361.968C455.348 366.028 455.32 370.06 455.264 374.12V374.232C454.2 376.08 454.62 378.32 453.64 380.196C453.5 380.476 453.556 380.868 453.444 381.176C453.304 381.484 453.08 381.792 452.884 382.044L452.464 382.268C453.136 383.528 451.624 383.892 451.344 384.816C451.036 385.964 450.224 387 449.58 388.036C449.02 388.904 448.236 389.66 447.76 390.584C447.032 392.012 445.8 392.964 444.652 393.972C444.316 394.28 443.896 394.476 443.532 394.728C442.356 395.484 441.208 396.268 440.032 396.968C438.548 397.864 436.98 398.592 435.272 398.984C434.74 399.096 434.208 399.264 433.76 399.544C433.508 399.712 433.368 400.16 433.34 400.496C433.144 402.064 433.004 402.12 431.38 401.7C430.596 401.504 429.672 401.56 428.916 401.784C428.132 402.008 427.292 402.12 426.508 402.68C425.78 403.212 424.604 403.268 423.624 403.296C420.012 403.352 416.372 403.296 412.76 403.352C412.228 403.352 411.696 403.66 411.136 403.828C410.744 403.94 410.324 404.08 409.904 404.08C408.112 404.108 406.32 404.052 404.528 404.108C403.492 404.136 402.484 404.388 401.448 404.528C401.112 404.584 400.748 404.668 400.44 404.584C398.62 404.024 396.8 404.696 395.008 404.612C393.188 404.528 391.34 404.612 389.52 404.612C388.932 404.612 388.372 404.5 387.924 405.144C387.756 405.368 387.224 405.368 386.86 405.368C384.172 405.368 381.484 405.368 378.796 405.368C378.46 405.368 378.012 405.396 377.816 405.228C376.948 404.416 375.912 404.64 374.932 404.64C370.2 404.64 365.468 404.64 360.736 404.64C360.148 404.64 359.588 404.976 359 405.116C358.524 405.228 358.02 405.34 357.516 405.34C351.244 405.34 344.972 405.032 338.728 405.452C333.464 405.816 328.172 405.452 322.964 405.984C320.08 406.292 317.224 406.208 314.368 406.348C313.752 406.348 313.136 406.124 312.52 405.956C311.708 405.76 310.896 405.564 310.084 405.34C309.748 405.228 309.16 405.06 309.16 404.892C309.104 403.884 308.46 403.268 307.9 402.54C307.368 401.84 307.788 400.216 308.516 399.488C310.168 397.892 312.016 396.744 314.48 396.996C315.012 397.052 315.572 396.716 316.132 396.576C317.084 396.296 318.008 396.156 318.96 396.66C319.296 396.856 319.8 396.856 320.192 396.772C320.752 396.688 321.284 396.296 321.816 396.296C326.296 396.296 330.748 396.296 335.228 396.352C335.648 396.352 336.152 396.352 336.46 396.604C337.244 397.164 337.888 397.192 338.644 396.604L339.456 396.548C341.108 397.304 342.76 397.36 344.384 396.52L345.14 396.38C346.848 396.352 348.556 396.324 350.236 396.296C350.628 396.296 351.076 396.24 351.356 396.436C352.784 397.36 354.156 397.304 355.612 396.492C355.948 396.296 356.452 396.324 356.872 396.324C358.244 396.296 359.588 396.324 360.96 396.268C364.152 396.128 367.4 395.484 370.536 395.876C377.312 396.688 384.116 396.016 390.892 396.268C392.684 396.352 394.504 396.464 396.24 396.24C400.776 395.596 405.34 395.932 409.876 395.736C410.996 395.68 412.032 394.952 413.264 395.008C415.224 395.092 417.184 395.008 419.144 395.008C420.376 395.008 421.608 395.064 422.84 395.008C424.268 394.896 425.696 394.756 427.068 394.448C427.74 394.308 428.328 393.748 428.944 393.356C429.56 392.964 430.204 392.6 430.792 392.152C432.584 390.808 434.684 390.08 436.448 388.624C437.652 387.616 438.8 386.552 439.892 385.46C440.676 384.676 441.096 383.584 441.824 382.744C442.692 381.708 442.552 380.252 443.616 379.244C444.232 378.656 444.148 377.368 444.4 376.388C444.484 376.024 444.456 375.548 444.68 375.324C445.1 374.904 445.044 374.68 444.708 374.26L444.764 373.392C446.192 372.748 445.8 371.32 446.192 370.256C446.388 369.724 446.192 369.08 446.304 368.492C446.388 367.96 446.584 367.456 446.752 366.952C447.032 366.056 447.284 365.16 446.5 364.348C445.856 363.676 445.716 362.892 445.828 361.996C445.996 360.568 446.108 359.14 446.304 357.74C446.416 357.012 446.668 356.312 446.836 355.584L446.976 354.968C447.144 352.616 447.452 350.236 447.452 347.884C447.508 338.672 447.508 329.488 447.452 320.276C447.452 317.7 447.144 315.124 447.032 312.548C447.004 311.876 447.2 311.232 447.312 310.56L447.396 310.196C446.584 306.584 447.088 302.916 447.004 299.276C446.892 294.124 447.004 288.972 446.948 283.82C446.948 283.204 446.528 282.588 446.472 281.944C446.416 281.216 446.332 280.404 446.584 279.76C447.144 278.22 447.172 276.764 446.584 275.252C446.444 274.86 446.304 274.44 446.304 274.048C446.276 269.008 446.276 263.996 446.248 258.984C446.248 258.228 446.192 257.444 446.248 256.688C446.304 256.212 446.528 255.764 446.668 255.288C446.78 254.896 446.92 254.476 446.92 254.084C446.92 247.784 446.92 241.484 446.92 235.184C446.92 234.848 446.976 234.372 446.78 234.204C446.024 233.532 446.192 232.664 446.192 231.824C446.192 226 446.5 220.12 446.052 214.324C445.66 209.088 445.772 203.88 445.66 198.672C445.632 197.216 445.436 195.704 445.8 194.36C446.192 192.876 446.108 191.42 446.136 189.964C446.136 189.516 445.968 189.068 445.884 188.62L445.744 188.144C445.828 186.8 445.94 185.484 446.052 184.14V183.384C445.352 181.928 445.604 180.5 446.052 179.072L446.136 178.568C445.884 177.028 446.696 175.852 447.396 174.62C447.984 173.612 449.748 173.22 450.784 173.892C451.176 174.144 451.652 174.368 452.128 174.396C453.64 174.48 454.872 175.32 455.208 176.692C455.46 177.7 455.572 178.736 455.796 179.744L456.076 180.416C456.776 181.172 456.692 181.9 456.104 182.684C455.936 182.908 455.796 183.188 455.768 183.468C455.572 186.94 455.376 190.384 455.236 193.856C455.152 195.732 455.18 197.608 455.236 199.484C455.376 202.956 455.572 206.4 455.74 209.872C457.196 212.532 456.328 215.388 456.468 218.16C456.608 220.96 456.188 223.816 456.552 226.588C457.476 233.532 456.664 240.504 456.916 244.872" fill="#75C9E6"/>
<path id="Vector_7" d="M289.728 155.216C289.728 168.068 289.728 180.948 289.728 193.8C289.728 194.556 290.036 195.34 290.232 196.096L290.372 196.796C290.176 198.168 290.12 199.596 289.644 200.884C289.028 202.536 288.496 204.272 287.068 205.504C286.004 206.428 284.212 206.316 283.176 205.308C282.448 204.58 281.832 203.908 281.748 202.76C281.72 202.144 281.104 201.612 280.88 200.996C280.516 199.904 280.432 198.784 280.992 197.664L281.132 196.908C281.02 196.264 280.684 195.648 280.684 195.004C280.656 191.896 280.516 188.76 280.768 185.68C280.88 184.28 281.076 182.964 280.768 181.564C280.656 181.088 281.076 180.472 281.16 179.912C281.216 179.548 281.3 179.044 281.132 178.764C280.544 177.812 280.572 176.972 281.132 176.048C281.3 175.796 281.3 175.32 281.16 175.012C280.376 173.052 280.432 171.12 281.16 169.16C281.272 168.88 281.356 168.376 281.216 168.236C280.516 167.564 280.74 166.752 280.712 165.94C280.712 164.232 280.712 162.524 280.712 160.816C280.712 159.892 280.712 159.052 281.188 158.128C281.552 157.428 281.132 156.364 281.048 155.44C281.02 155.104 280.768 154.656 280.88 154.404C281.664 152.976 281.664 151.632 280.824 150.232C280.656 149.952 280.684 149.56 280.684 149.224C280.684 148.132 280.656 147.012 280.684 145.892C280.684 145.5 280.824 145.052 281.02 144.716C281.552 143.652 281.608 142.588 281.02 141.608C280.712 141.076 280.824 140.768 281.076 140.236C281.3 139.788 281.16 139.144 281.076 138.612C281.02 138.136 280.684 137.66 280.684 137.212C280.656 134.048 280.628 130.912 280.684 127.748C280.684 127.132 281.104 126.488 281.16 125.872C281.244 124.836 281.188 123.8 281.104 122.764C281.076 122.232 280.74 121.728 280.712 121.224C280.656 119.656 280.628 118.06 280.712 116.492C280.74 115.848 281.104 115.232 281.188 114.588C281.272 114 281.356 113.272 281.104 112.768C280.628 111.816 280.432 110.948 281.16 110.08C281.804 109.296 280.684 108.876 280.852 108.26C280.992 107.7 281.72 107.308 281.132 106.58C280.46 105.768 280.544 104.872 281.132 104.004C281.58 103.332 281.58 102.66 281.132 101.988C280.572 101.204 280.656 100.448 281.132 99.636C281.3 99.328 281.3 98.74 281.132 98.404C280.712 97.648 280.656 97.004 281.16 96.276L281.412 95.604C281.048 94.148 281.412 92.748 282.028 91.488C282.56 90.368 283.344 89.388 284.072 88.38C284.24 88.156 284.688 88.128 285.024 88.1C286.256 88.016 287.488 87.876 288.692 87.904C289.364 87.904 290.12 88.016 290.372 88.968C290.484 89.416 290.96 89.752 291.268 90.144C291.464 90.396 291.772 90.648 291.884 90.928C292.416 92.44 292.892 93.98 293.396 95.52C293.676 96.36 293.956 97.228 294.264 98.04C294.796 99.44 295.244 100.896 295.944 102.212C296.756 103.668 296.84 105.404 297.876 106.804C298.576 107.784 298.66 109.212 299.052 110.444C299.276 111.116 299.612 111.76 299.864 112.46C300.452 114 300.9 115.624 301.6 117.136C302.244 118.48 302.552 119.88 302.972 121.28C303.476 122.988 304.344 124.612 304.988 126.292C305.744 128.224 306.388 130.184 307.172 132.088C307.788 133.572 308.544 135 309.132 136.484C309.804 138.164 310.224 139.984 311.036 141.608C311.792 143.148 312.296 144.884 313.78 146.06C314.676 146.76 314.704 146.816 315.32 145.892C315.88 145.052 316.552 144.296 317.112 143.484C317.392 143.092 317.588 142.616 317.784 142.14C318.596 140.18 319.38 138.22 320.164 136.26C320.304 135.868 320.332 135.42 320.472 135.028C321.004 133.46 321.564 131.892 322.152 130.324C322.992 128.112 323.776 125.872 324.812 123.744C325.596 122.064 325.764 120.188 326.576 118.592C327.164 117.444 327.136 116.044 328.228 115.036C328.788 114.532 328.788 113.44 329.04 112.6C329.376 111.368 329.488 110.024 330.104 108.96C330.888 107.588 331.196 106.104 331.672 104.676C332.176 103.108 332.652 101.456 333.492 100.056C334.64 98.068 335.2 95.884 336.068 93.812C336.656 92.412 337.216 90.928 338.14 89.724C338.784 88.856 339.904 88.1 340.968 87.792C341.976 87.484 343.208 87.876 344.328 87.876C345.672 87.876 346.54 88.828 347.184 89.612C347.94 90.536 348.248 91.88 348.528 93.112C348.752 94.008 348.64 94.988 348.64 95.912C348.64 119.88 348.64 143.876 348.64 167.844C348.64 168.656 348.416 169.552 349.144 170.252V170.868C348.808 171.876 348.416 172.884 347.996 173.892C347.352 175.46 345.084 176.412 343.488 175.824C343.208 175.74 342.9 175.684 342.62 175.656C341.64 175.544 341.22 174.872 341.136 174.004C341.08 173.304 341.136 172.604 340.492 172.044C340.268 171.848 340.296 171.344 340.296 170.952C340.296 169.944 340.324 168.908 340.296 167.872C340.184 164.736 339.988 161.6 339.904 158.492C339.904 157.82 340.1 157.176 340.184 156.504C340.24 156.056 340.184 155.58 340.212 155.132C340.212 154.74 340.212 154.32 340.212 153.928C340.212 153.424 340.212 152.92 340.128 152.416C340.072 151.968 339.82 151.464 339.932 151.044C340.352 149.28 339.904 147.544 339.932 145.808C339.932 145.22 340.128 144.66 340.212 144.072C340.268 143.624 340.38 143.12 340.24 142.7C339.764 141.216 339.932 139.816 340.184 138.304C340.38 137.1 340.128 135.84 340.072 134.608L339.96 134.132C340.856 132.284 339.68 130.464 339.904 128.616C339.988 127.832 340.128 127.048 340.24 126.236L340.296 125.62C339.4 123.1 340.548 120.608 340.352 118.06C340.156 115.512 340.324 112.964 340.324 110.388V109.744C340.212 109.352 340.044 108.96 339.904 108.568C339.736 108.904 339.54 109.24 339.372 109.576C338.644 111.284 337.888 112.992 337.188 114.7C336.656 115.988 336.208 117.332 335.648 118.62C335.032 120.104 334.248 121.504 333.66 123.016C333.184 124.22 332.96 125.508 332.512 126.74C331.98 128.168 331.336 129.54 330.776 130.94C330.524 131.556 330.496 132.256 330.216 132.844C329.516 134.44 328.648 135.952 328.032 137.576C327.304 139.508 326.744 141.524 326.1 143.484C325.904 144.044 325.708 144.604 325.456 145.136C324.868 146.396 324.168 147.628 323.636 148.944C322.964 150.596 322.488 152.332 321.788 153.956C321.34 154.964 321.088 156.14 320.052 156.784L319.856 157.204C319.912 158.324 319.772 158.576 319.1 159.36C318.848 159.668 318.708 160.172 318.708 160.62C318.708 161.488 318.316 161.796 317.476 161.852C316.132 161.964 315.096 161.628 314.004 160.76C312.016 159.22 310.504 157.316 308.936 155.44C308.656 155.104 308.46 154.656 308.264 154.264C307.368 152.584 306.444 150.932 305.66 149.224C305.212 148.272 305.128 147.18 304.68 146.228C304.12 144.996 303.308 143.848 302.748 142.616C301.684 140.18 300.76 137.688 299.696 135.252C298.548 132.648 297.26 130.072 296.084 127.468C295.832 126.936 295.692 126.348 295.608 125.788C295.328 124.164 294.376 122.904 293.564 121.532C292.724 120.104 292.248 118.452 291.576 116.912C291.296 116.268 290.988 115.652 290.624 115.064L290.008 115.204C289.924 115.624 289.952 116.044 289.952 116.464C289.952 129.372 289.952 142.28 289.952 155.188" fill="#75C9E6"/>
<path id="Vector_8" d="M407.58 168.6C407.58 194.416 407.58 220.232 407.58 246.048C407.58 247.616 407.356 249.044 406.124 250.192C405.732 250.556 405.648 251.284 405.228 251.62C404.08 252.544 402.708 252.348 401.476 251.872C399.572 251.172 398.704 248.176 399.712 246.356C399.88 246.076 399.796 245.6 399.712 245.236C399.6 244.676 399.264 244.144 399.264 243.612C399.208 240.028 399.264 236.444 399.208 232.888C399.18 231.32 398.872 229.78 398.816 228.24C398.732 226.448 398.76 224.628 398.816 222.808C398.844 221.8 399.096 220.82 399.152 219.812C399.208 219.056 399.068 218.3 399.04 217.544C399.04 216.536 399.04 215.556 399.04 214.548C399.04 214.1 399.096 213.652 399.068 213.204C399.012 211.356 398.872 209.48 398.872 207.632C398.872 205.98 399.208 204.356 399.18 202.704C399.18 200.744 398.9 198.784 398.816 196.824C398.816 196.208 399.012 195.592 399.068 194.948C399.124 194.248 399.32 193.464 399.124 192.82C398.676 191.308 398.62 189.824 399.152 188.34L399.208 187.976C399.096 186.464 398.956 184.924 398.872 183.412C398.844 182.852 398.704 182.264 398.872 181.76C399.404 180.052 399.012 178.344 399.012 176.636C399.012 174.144 398.228 171.624 399.124 169.132L399.208 168.516C399.068 166.248 398.9 163.952 398.732 161.684C398.704 161.292 398.508 160.9 398.368 160.508C398.284 160.228 398.088 159.976 398.06 159.696C397.836 158.38 397.808 156.98 397.416 155.72C396.772 153.62 395.68 151.66 395.176 149.56C394.7 147.516 393.104 146.284 392.236 144.52C391.648 143.316 390.584 142.364 389.772 141.272C389.184 140.46 388.652 139.62 388.12 138.78C387.42 137.744 386.748 136.708 386.048 135.672C385.264 134.524 384.508 133.348 383.696 132.2C382.296 130.268 381.344 128.028 379.496 126.404C378.628 125.648 378.068 124.556 377.396 123.604C376.528 122.344 375.688 121.056 374.848 119.796C374.036 118.592 373.336 117.276 372.356 116.268C371.348 115.26 370.032 114.532 368.828 113.72L368.268 114.168C367.232 115.988 367.484 117.976 367.484 119.936C367.484 127.356 367.904 134.776 367.344 142.168C366.756 150.176 367.232 158.156 366.98 166.108C366.98 166.864 367.344 167.62 367.26 168.348C367.036 170.14 367.344 172.016 366.42 173.696L366.28 173.892C366.504 175.488 365.356 175.74 364.208 175.936L364.096 175.992C363.396 175.88 362.948 177.364 362.024 176.3C361.548 175.768 360.82 175.432 360.288 174.956C358.412 173.304 358.356 171.232 359.056 169.02C359.196 168.6 359.168 168.096 359.168 167.62C359.056 164.792 358.888 161.964 358.776 159.136C358.776 158.52 358.972 157.904 359.056 157.26C359.112 156.896 359.224 156.476 359.14 156.112C358.384 153.144 358.86 150.12 358.776 147.096C358.776 146.004 359 144.94 359.14 143.848V143.344C359.028 141.524 358.86 139.732 358.776 137.912C358.776 137.408 358.944 136.932 359.028 136.428L359.168 135.952C359.084 134.412 358.944 132.844 358.832 131.304C358.804 130.8 358.72 130.296 358.72 129.792C358.72 117.472 358.72 105.18 358.748 92.86C358.748 91.18 359.028 89.5 359.252 87.82C359.308 87.512 359.812 87.036 360.148 87.008C361.8 86.896 363.48 86.868 365.132 86.924C366.616 86.98 368.66 90.172 368.184 91.544L367.764 92.132C367.68 92.468 367.596 92.916 367.764 93.14C368.408 94.064 368.744 95.044 368.828 96.164C368.884 96.836 369.192 97.508 369.444 98.18C369.612 98.628 369.892 99.048 370.144 99.44C370.928 100.616 371.768 101.792 372.58 102.968C373.028 103.612 373.448 104.256 373.868 104.9C374.652 106.048 375.38 107.252 376.192 108.372C377.088 109.632 378.068 110.864 378.992 112.096C379.664 112.964 380.224 113.944 381.008 114.728C382.128 115.876 382.492 117.444 383.724 118.564C384.564 119.32 384.984 120.58 385.656 121.56C385.964 122.008 386.468 122.288 386.748 122.736C387.7 124.136 388.568 125.592 389.576 126.964C390.248 127.888 391.06 128.728 391.788 129.624C392.068 129.988 392.236 130.436 392.488 130.8C392.684 131.08 392.936 131.332 393.16 131.612C393.356 131.864 393.552 132.116 393.748 132.396C394 132.788 394.168 133.348 394.532 133.572C395.708 134.328 395.82 135.868 396.856 136.68C397.248 136.988 397.696 137.436 398.088 137.408C398.732 137.352 398.76 136.708 398.816 136.12C398.872 135.364 399.124 134.636 399.18 133.88C399.236 133.124 399.152 132.368 399.068 131.612C399.04 131.192 398.788 130.772 398.872 130.38C399.404 127.692 398.648 125.032 398.872 122.344C399.012 120.636 398.872 118.9 398.9 117.164C398.9 116.492 399.068 115.82 399.152 115.176L399.236 114.56C398.424 111.928 399.012 109.24 398.844 106.58C398.732 104.844 398.732 103.08 398.844 101.344C398.928 99.888 399.18 98.488 398.9 97.004C398.732 96.164 399.152 95.072 399.628 94.26C400.16 93.308 400.216 92.468 399.768 91.544L399.6 90.984C400.188 89.696 400.804 88.436 401.476 87.204C401.7 86.756 402.064 86.364 402.736 86.644L403.52 86.448C404.556 85.972 405.368 86.252 405.9 87.232L406.264 87.736C407.636 88.632 407.692 89.948 407.692 91.404C407.692 117.136 407.692 142.868 407.692 168.572" fill="#75C9E6"/>
<path id="Vector_9" d="M106.328 250.64C106.328 238.32 106.328 226.028 106.328 213.708C106.328 205.532 106.328 197.356 106.272 189.18C106.272 188.508 105.936 187.836 105.824 187.136C105.74 186.744 105.628 186.156 105.824 185.932C106.412 185.204 106.3 184.42 106.3 183.636C106.3 180.276 106.3 176.916 106.3 173.528C106.3 172.66 106.524 171.736 105.824 170.98V170.28C106.608 168.824 106.58 167.396 105.852 165.94L105.964 165.016C106.44 164.344 106.328 163.756 106.02 163.028C105.796 162.496 105.796 161.684 106.02 161.152C106.328 160.452 106.412 159.92 106.02 159.248C105.46 158.324 105.544 157.288 105.936 156.336C106.496 154.964 106.58 153.592 105.908 152.22L105.852 151.408C106.552 150.68 106.384 149.812 106.3 148.972C106.188 147.74 106.776 146.424 105.88 145.276C106.496 143.96 106.496 142.644 105.88 141.356C106.552 140.824 105.88 140.432 105.796 139.984C105.572 138.472 105.152 136.876 106.16 135.448L106.44 134.748C107.112 133.236 108.904 132.872 110.192 133.992L110.612 134.272C112.04 135.924 112.74 136.204 111.508 138.136C111.284 138.472 111.396 139.06 111.396 139.508C111.396 156.448 111.396 173.416 111.396 190.356C110.276 199.988 111.06 209.62 110.92 219.252C110.78 228.912 110.892 238.6 110.892 248.26V277.268C110.892 286.928 110.864 296.616 110.892 306.276C110.892 308.516 110.864 310.868 111.536 312.94C111.984 314.368 111.732 315.992 112.6 317.252C113.72 318.876 114.756 320.388 116.884 321.2C119.012 322.012 121.028 321.76 123.1 321.76C137.24 321.816 151.38 321.76 165.52 321.788C168.152 321.788 170.056 320.304 171.764 318.624C172.604 317.812 173.08 316.552 172.912 315.152C172.8 314.256 173.024 313.304 173.08 312.38V311.764C173.08 310.644 173.164 309.524 173.22 308.404C173.276 307.116 173.388 305.8 173.388 304.512C173.388 295.832 173.388 287.124 173.388 278.444C173.388 270.52 173.388 262.596 173.388 254.672C173.388 246.748 173.388 238.992 173.388 231.152C173.388 223.704 173.388 216.256 173.388 208.808C173.388 199.96 173.416 191.084 173.36 182.236C173.36 179.604 173.36 176.916 172.716 174.424C172.212 172.52 172.408 170.644 172.016 168.852C171.708 167.396 171.848 165.856 171.008 164.456C170.504 163.616 170.476 162.44 170.392 161.404C170.28 159.668 169.468 158.184 168.796 156.672C167.844 154.544 166.864 152.416 165.94 150.288C165.212 148.58 164.652 146.76 163.812 145.108C163.196 143.904 162.216 142.868 161.432 141.72C160.76 140.768 160.088 139.816 159.5 138.836C158.296 136.848 156.728 135.308 154.712 134.216C154.068 133.88 153.508 133.348 152.92 132.872C151.548 131.808 150.204 130.632 148.776 129.652C147.012 128.476 145.108 127.552 142.952 127.328C142.644 127.3 142.28 127.16 142.056 126.936C141.048 125.956 141.216 123.044 142.28 122.148C142.56 121.896 142.896 121.7 143.12 121.392C143.596 120.804 143.988 120.86 144.632 121.252C145.5 121.784 146.564 122.036 147.46 122.54C148.804 123.268 150.092 124.08 151.408 124.864C152.332 125.424 153.284 125.956 154.18 126.544C154.656 126.852 155.076 127.3 155.524 127.692C157.008 128.98 158.548 130.212 159.92 131.584C161.544 133.18 163.056 134.888 164.512 136.624C165.184 137.436 165.548 138.472 166.108 139.396C166.64 140.236 167.228 140.992 167.788 141.804C168.992 143.624 170.056 145.528 170.868 147.572C171.148 148.328 171.512 149.084 171.988 149.756C172.8 150.904 173.36 152.136 173.528 153.536L173.92 154.152C174.172 154.544 174.592 154.936 174.62 155.328C174.676 156.952 175.6 158.296 176.048 159.78C176.58 161.6 177.196 163.42 177.728 165.24C177.868 165.688 177.784 166.164 177.812 166.64C177.896 167.62 177.56 168.684 178.428 169.524C178.624 169.72 178.568 170.168 178.568 170.504C178.568 171.876 178.568 173.22 178.624 174.592C178.736 176.832 179.296 179.1 179.016 181.256C178.26 186.856 178.764 192.456 178.652 198.056C178.54 203.628 178.624 209.228 178.624 214.8C178.624 245.376 178.624 275.98 178.624 306.556C178.624 308.236 178.988 309.888 179.1 311.568C179.268 314.032 178.848 316.384 177.672 318.568C176.804 320.164 175.684 321.62 174.956 323.272C174.256 324.868 172.912 325.792 171.792 326.912C171.092 327.612 170.028 328.256 168.824 327.556C168.516 327.388 168.068 327.416 167.704 327.416C164.54 327.416 161.376 327.612 158.24 327.388C150.092 326.8 141.944 326.94 133.796 326.94C130.352 326.94 126.908 326.912 123.436 326.94C122.4 326.94 121.364 327.332 120.328 327.276C119.236 327.22 118.06 327.024 117.052 326.576C115.568 325.96 114.196 325.148 112.796 324.336C112.152 323.972 111.564 323.496 111.032 322.936C110.276 322.124 109.492 321.312 108.932 320.36C108.008 318.792 107.112 317.252 106.888 315.32C105.796 305.94 106.524 296.56 106.384 287.18C106.244 276.904 106.328 266.656 106.328 256.38C106.328 254.42 106.328 252.46 106.328 250.5H106.384L106.328 250.64Z" fill="#75C9E6"/>
<path id="Vector_10" d="M221.072 279.144V236.836C221.072 236.108 220.904 235.492 220.596 234.792C220.288 234.092 220.568 233.084 220.652 232.216C220.708 231.74 221.072 231.264 221.044 230.788C220.904 228.408 221.912 226.364 223.032 224.404C223.704 223.228 224.964 222.416 225.832 221.324C227.176 219.644 229.248 219 230.816 217.656L231.264 217.46C233.168 216.984 234.988 216.172 237.06 216.2C244.48 216.284 251.872 216.2 259.292 216.2C261.392 216.2 263.38 218.412 263.072 220.456C262.988 221.072 262.596 221.716 262.176 222.22C261.336 223.2 260.44 224.068 258.928 224.012C256.716 223.9 254.504 224.012 252.292 224.04C247.336 224.18 242.352 224.236 237.396 224.544C236.192 224.628 234.96 225.356 233.84 226C232.58 226.7 231.432 227.652 230.256 228.492L230.004 228.744C229.388 230.508 228.128 231.992 228.156 234.008C228.184 261.868 228.184 289.728 228.212 317.588C228.212 318.12 228.212 318.708 228.38 319.212C229.108 321.116 230.76 321.536 232.44 320.332C233.644 319.464 234.932 318.68 236.136 317.812C236.584 317.504 236.864 317 237.312 316.692C238.796 315.572 240.364 314.564 241.792 313.388C242.884 312.492 243.752 311.344 244.844 310.448C246.048 309.44 247.112 308.376 248.148 307.2C249.296 305.856 250.612 304.652 251.844 303.42L252.488 302.86C254.98 301.516 256.38 299.248 257.276 296.728C258.144 294.348 258.9 291.884 258.816 289.252C258.816 288.776 259.096 288.328 259.236 287.852C259.348 287.404 259.516 286.956 259.516 286.508C259.516 283.232 259.516 279.956 259.488 276.68C259.488 276.204 259.208 275.756 259.068 275.28C258.956 274.888 258.844 274.468 258.816 274.048C258.62 271.892 258.48 269.736 258.256 267.608C258.172 266.74 257.556 266.264 256.744 265.984C256.352 265.844 255.932 265.732 255.624 265.48C254.42 264.5 252.628 264.444 251.256 265.2C250.64 265.536 249.94 266.04 249.128 265.564L248.624 265.48C246.944 265.76 245.544 265.06 244.144 264.248C243.024 263.576 242.268 262.68 241.932 261.42L241.876 261.028C241.792 260.58 241.484 259.964 241.652 259.74C242.324 258.984 243.08 258.2 243.948 257.696C244.788 257.192 245.992 257.248 246.776 256.66C248.008 255.736 249.296 255.876 250.64 255.876C253.748 255.876 256.856 255.96 259.964 255.876C262.148 255.82 263.744 256.828 265.368 258.088C266.684 259.096 267.216 260.3 266.992 261.756C265.984 268.476 266.768 275.252 266.544 282C266.46 284.044 266.544 286.088 266.544 288.132C266.544 289.056 266.768 290.036 265.928 290.764L265.844 291.128C265.648 292.92 265.312 294.74 265.312 296.532C265.312 297.96 264.724 299.108 263.94 300.088C263.352 300.844 263.044 301.628 262.652 302.468C262.092 303.728 261.616 304.988 260.3 305.856C259.208 306.584 258.564 307.9 257.612 308.88C256.324 310.196 255.232 311.624 253.636 312.688C251.9 313.808 250.556 315.544 249.016 316.972C248.26 317.644 247.448 318.232 246.664 318.904C246.188 319.296 245.796 319.8 245.32 320.192C244.088 321.228 242.8 322.18 241.596 323.244C240.84 323.888 240.168 324.672 239.44 325.316C238.04 326.548 236.724 327.976 235.128 328.844C233.672 329.628 232.188 330.72 230.368 330.58C229.024 330.496 227.652 330.524 226.364 330.244C224.404 329.796 223.48 328.144 222.556 326.548C221.044 323.944 221.24 321.144 221.24 318.316C221.24 305.296 221.24 292.248 221.24 279.228L221.072 279.144Z" fill="#75C9E6"/>
<path id="Vector_11" d="M269.456 120.16C269.456 129.232 269.456 138.304 269.456 147.376C269.456 149 269.344 150.652 268.952 152.22C268.532 153.872 267.72 155.44 267.076 157.036C266.46 158.548 265.956 160.088 265.2 161.516C264.5 162.832 264.192 164.4 262.96 165.464C262.596 165.8 262.512 166.416 262.232 166.892C261.952 167.396 261.672 167.872 261.336 168.348C259.376 171.232 256.688 173.472 254.336 176.02C254.056 176.328 253.832 176.664 253.524 176.972C252.068 178.316 250.612 179.66 249.156 181.004C248.932 181.2 248.652 181.368 248.372 181.396C247.084 181.62 246.048 182.684 244.648 182.572C244.088 182.516 243.584 182.208 243.024 182.068C242.576 181.956 242.128 181.872 241.68 181.788C240.532 181.62 239.356 181.48 238.208 181.256C237.956 181.2 237.704 180.976 237.48 180.808C236.5 180.108 235.492 179.464 234.568 178.708C233.924 178.204 233.392 177.532 232.776 177C231.908 176.244 230.956 175.572 230.116 174.788C229.584 174.284 229.192 173.64 228.772 173.024C227.904 171.764 227.064 170.476 226.168 169.188C225.524 168.236 224.796 167.34 224.152 166.388C223.816 165.912 223.62 165.352 223.312 164.876C222.808 164.148 222.192 163.476 221.66 162.72C221.436 162.384 221.184 161.964 221.156 161.572C221.1 160.704 220.932 160.004 220.288 159.304C219.812 158.8 219.7 157.932 219.532 157.176C219.196 155.776 218.888 154.348 218.636 152.92C218.412 151.716 218.244 150.512 218.132 149.308C218.048 148.3 218.048 147.264 218.048 146.256C218.048 144.884 218.048 143.54 218.048 142.168C218.048 141.412 218.16 140.628 217.488 140.04L217.32 139.452C217.152 137.268 216.984 135.084 216.816 132.872C216.816 132.564 216.872 132.172 216.704 132.004C215.808 131.08 216.116 129.932 216.032 128.868C215.864 126.88 216.144 124.724 215.416 122.988C214.632 121.112 215.22 119.124 214.352 117.36L214.296 117.108C214.66 114.476 213.008 112.376 212.28 110.052C211.748 108.288 210.74 106.608 209.424 105.04C207.828 103.164 206.372 101.12 204.748 99.244C203.712 98.04 202.452 97.004 201.304 95.884C200.856 95.464 200.436 95.016 199.988 94.596C198.672 93.42 197.468 92.076 196.012 91.152C194.612 90.284 193.52 89.164 192.26 88.156C191.476 87.54 190.748 86.812 189.88 86.364C188.76 85.804 187.64 85.132 186.296 85.048C185.792 85.02 185.232 84.712 184.784 84.432C183.776 83.788 182.852 83.004 181.844 82.388C180.528 81.576 179.324 78.524 179.884 76.984L180.472 76.424C180.696 76.312 180.976 76.368 181.228 76.368C181.984 76.34 182.824 76.48 183.524 76.256C186.1 75.472 187.64 77.152 189.376 78.468L189.768 78.776C190.916 78.748 191.84 79.532 192.848 79.756C194.164 80.036 195.256 80.708 196.264 81.38C197.552 82.248 199.232 82.64 200.1 84.264C200.492 84.992 201.64 85.3 202.424 85.804C203.74 86.616 204.944 87.568 206.204 88.436C207.8 89.528 208.472 91.432 210.096 92.356C212.14 93.504 212.924 95.744 214.52 97.228C216.004 98.628 216.48 100.476 217.46 102.072C217.88 102.744 218.328 103.388 218.692 104.06C219.252 105.124 219.784 106.216 220.288 107.28L220.456 108.008C220.484 108.736 220.54 109.436 221.268 109.884L221.604 110.416C221.912 111.452 222.248 112.488 222.444 113.552C222.724 115.064 222.584 116.772 223.172 118.116C223.76 119.404 223.704 120.72 223.984 121.98C224.152 122.792 224.264 123.632 224.348 124.472C224.432 125.536 224.236 126.6 224.88 127.664C225.216 128.252 225.02 129.148 225.076 129.932C225.524 135.14 225.692 140.348 225.636 145.584C226.532 147.544 226.14 149.644 226.476 151.66C226.7 153.032 227.428 154.292 227.932 155.636L228.1 156.364C228.296 157.512 228.38 158.716 228.744 159.808C229.108 160.872 229.64 161.936 230.284 162.86C231.488 164.568 232.832 166.192 234.148 167.816C234.4 168.124 234.736 168.348 235.044 168.6C235.884 169.244 236.668 169.916 237.564 170.476C238.488 171.064 239.412 171.624 240.42 172.1C241.232 172.492 242.184 172.576 242.968 172.996C244.144 173.612 245.18 172.968 246.3 172.856L246.664 172.772C248.736 171.232 250.808 169.692 251.9 167.228C252.124 166.752 252.6 166.416 252.936 165.968C254.056 164.512 255.148 163.056 255.792 161.32C256.072 160.564 256.716 159.976 257.108 159.248C257.556 158.408 257.696 157.372 258.284 156.644C259.292 155.328 259.404 153.732 260.02 152.332C260.832 150.512 260.916 148.496 261.476 146.676C262.288 144.016 261.868 141.412 262.092 138.808C262.204 137.492 262.484 136.176 262.484 134.888C262.484 133.628 262.176 132.368 262.176 131.108C262.176 129.092 262.316 127.048 262.4 125.032C262.4 124.752 262.54 124.416 262.484 124.164C261.672 121.308 262.176 118.424 262.176 115.54C262.176 114.728 262.596 113.944 262.12 113.132V112.768C262.988 108.68 261.672 104.592 262.12 100.532C262.176 99.944 262.316 99.384 262.428 98.796L262.54 98.068C261.952 96.276 262.848 94.512 262.568 92.72C262.428 91.796 262.176 90.9 262.092 89.976C261.952 88.212 263.1 86.952 264.892 86.812C266.768 86.644 268.56 88.156 269.12 89.976C269.624 91.656 269.568 93.336 269.568 95.016C269.568 103.36 269.568 111.704 269.568 120.048H269.54L269.456 120.16Z" fill="#75C9E6"/>
<path id="Vector_12" d="M309.608 246.272C309.608 245.348 309.552 244.396 309.608 243.472C309.664 242.856 309.972 242.296 310.028 241.68C310.112 240.868 310.336 239.916 310.028 239.216C309.412 237.76 309.328 236.444 310.028 235.016C310.224 234.624 310.14 233.896 309.916 233.504C309.468 232.748 309.44 232.104 309.916 231.376C310.448 230.564 310.336 229.724 310 228.856C309.804 228.38 309.636 227.848 309.58 227.316C309.412 225.72 309.804 224.096 309.104 222.528C308.936 222.192 309.104 221.688 309.16 221.268C309.272 220.484 309.412 219.7 309.552 218.916C309.636 218.496 309.608 217.964 309.86 217.74C310.7 217.012 311.624 216.368 312.548 215.78C313.052 215.444 313.64 215.136 314.228 215.024C316.272 214.632 318.484 216.536 318.596 218.664C318.624 219.252 318.82 219.812 318.876 220.4C318.96 220.988 319.128 221.632 318.96 222.164C318.4 224.124 318.428 226.056 318.848 228.044C318.96 228.52 318.596 229.108 318.568 229.64C318.512 231.012 318.54 232.356 318.568 233.728C318.568 234.064 318.4 234.764 319.184 234.288L319.464 234.736C319.464 235.576 319.632 236.5 319.408 237.284C318.932 238.852 318.848 240.336 319.324 241.904L319.156 242.548C318.344 242.912 318.54 243.584 318.54 244.2C318.54 247.7 318.568 251.2 318.456 254.672C318.4 256.016 317.896 257.304 316.384 257.836L315.74 258.424C314.368 259.796 312.632 260.776 311.26 262.204C309.916 263.604 308.068 264.528 306.5 265.732C305.94 266.152 305.492 266.712 304.988 267.216C304.148 268.084 303.392 269.008 302.216 269.512C301.6 269.792 301.236 270.548 300.62 270.912C299.472 271.556 298.52 272.34 297.624 273.32C296.756 274.244 295.44 274.776 294.348 275.476L293.816 276.008C292.5 277.016 291.212 278.052 289.868 279.032C289.588 279.228 289.14 279.228 288.776 279.256C287.936 279.256 287.04 279.396 286.228 279.2C285.248 278.948 284.156 278.584 283.428 277.94C282.056 276.736 281.02 275.28 280.516 273.376C280.152 272.004 280.292 270.912 280.964 269.792L281.048 269.372C280.908 268.56 280.656 267.776 280.628 266.964C280.572 264.584 280.908 262.148 280.488 259.824C279.984 256.968 279.928 254.084 280.236 251.34C280.796 246.496 280.432 241.652 280.572 236.836C280.712 232.328 280.572 227.82 280.572 223.284C280.572 222.92 280.572 222.5 280.432 222.164C279.648 220.372 280.124 218.888 281.272 217.376C282.028 216.368 283.064 215.892 283.988 215.248C284.52 214.884 285.22 214.912 285.92 215.5C286.984 216.34 287.32 217.656 288.244 218.552L288.412 219.168C288.552 221.268 288.72 223.396 288.804 225.496C288.804 226.056 288.58 226.644 288.552 227.232C288.524 227.82 288.608 228.38 288.608 228.968C288.608 229.808 288.608 230.62 288.58 231.46C288.58 231.88 288.412 232.3 288.412 232.72C288.412 237.62 288.048 242.548 288.496 247.42C289.028 253.244 288.608 259.04 288.888 264.864C288.916 265.62 289.364 266.74 289.924 266.992C290.568 267.272 291.688 266.936 292.36 266.516C293.62 265.732 294.684 264.668 295.832 263.772C297.372 262.568 298.968 261.448 300.48 260.188C300.984 259.768 301.208 258.9 301.74 258.564C303.98 257.108 305.8 255.232 307.508 253.272C308.656 251.956 309.916 250.444 309.496 248.344C309.384 247.728 309.496 247.056 309.496 246.44H309.524L309.608 246.272Z" fill="#75C9E6"/>
<path id="Vector_13" d="M245.152 203.432C242.52 203.236 240.672 202.396 238.908 201.22C237.676 200.408 236.332 199.764 235.044 198.98C234.092 198.392 233.196 197.72 232.3 197.076C231.964 196.852 231.572 196.656 231.264 196.376C230.592 195.76 229.948 195.116 229.332 194.472L229.108 194.052C227.456 193.492 226.98 191.784 225.832 190.72C225.076 190.02 224.628 189.04 223.956 188.256C223.368 187.528 222.808 186.744 222.08 186.212C221.24 185.568 220.96 184.784 221.156 183.888C221.548 181.956 220.148 180.612 219.672 178.96C219.308 177.672 218.636 176.468 218.076 175.236C217.852 174.76 217.488 174.34 217.32 173.836C216.816 172.128 217.908 170.868 218.636 169.524L219.168 169.384C219.7 170.28 221.24 170.196 221.296 171.54C222.78 172.688 222.556 174.676 223.592 176.076C224.32 177.028 224.544 178.344 225.048 179.492C225.188 179.828 225.468 180.108 225.692 180.416C226.084 180.948 226.56 181.48 226.812 182.068C227.4 183.468 227.932 184.812 229.416 185.596C229.948 185.876 230.228 186.604 230.704 187.08C231.488 187.892 232.328 188.732 233.168 189.488C234.988 191.14 237.368 191.84 239.44 193.072C241.372 194.22 243.416 194.444 245.6 193.632C247.588 192.904 249.24 191.812 250.668 190.244C251.34 189.488 252.376 189.068 253.16 188.368C254.84 186.828 256.548 185.316 258.004 183.608C259.068 182.376 259.824 180.836 260.664 179.408C261.252 178.428 263.576 178.344 264.192 179.324C264.5 179.8 264.836 180.304 265.004 180.836C265.144 181.256 265.2 181.816 265.004 182.208C264.332 183.776 263.632 185.372 262.82 186.884C262.064 188.256 261.168 189.516 260.272 190.804C259.292 192.232 258.34 193.744 257.136 194.948C255.708 196.404 254.588 198.196 252.684 199.232C251.788 199.708 251.004 200.464 250.276 201.22C249.52 201.976 248.652 202.368 247.672 202.62C246.664 202.872 245.684 203.292 245.096 203.488" fill="#75C9E6"/>
<path id="Vector_14" d="M373.252 68.612C373.028 69.9 373 71.272 372.496 72.42C371.852 73.848 370.62 74.912 369.22 75.752C367.876 76.564 366.336 76.704 364.908 77.18C363.816 77.544 363.06 77.04 362.136 77.012C361.156 77.012 360.344 76.34 359.476 75.864C357.768 74.94 356.48 73.596 355.472 72.056C354.856 71.104 354.436 69.9 354.324 68.752C354.044 65.868 354.604 63.264 357.04 61.248C358.608 59.96 360.148 58.896 362.22 58.728C363.06 58.672 363.956 57.944 364.684 58.112C366.14 58.448 367.82 58.504 368.856 60.016C369.304 60.716 370.172 60.94 370.732 61.724C372.244 63.824 373.42 65.896 372.972 68.584H373.252V68.612Z" fill="#75C9E6"/>
<path id="Vector_15" d="M384.48 324.784C384.256 325.792 384.2 326.884 383.752 327.808C383.304 328.76 382.604 329.684 381.764 330.3C380.84 331 379.748 331.448 378.404 331.392C375.016 331.252 372.412 328.732 372.384 325.316C372.384 325.064 372.44 324.812 372.384 324.56C371.992 322.712 373.224 321.62 374.4 320.64C375.66 319.576 377.228 319.016 378.88 318.988C379.664 318.988 380.448 319.436 381.204 319.688L381.736 319.968C383.864 320.836 384.312 321.508 384.312 323.832V324.728H384.48V324.784Z" fill="#75C9E6"/>
</g>
<defs>
<filter id="filter0_d_0_76" x="0" y="0" width="490.612" height="435.816" filterUnits="userSpaceOnUse" color-interpolation-filters="sRGB">
<feFlood flood-opacity="0" result="BackgroundImageFix"/>
<feColorMatrix in="SourceAlpha" type="matrix" values="0 0 0 0 0 0 0 0 0 0 0 0 0 0 0 0 0 0 127 0" result="hardAlpha"/>
<feOffset/>
<feGaussianBlur stdDeviation="8"/>
<feComposite in2="hardAlpha" operator="out"/>
<feColorMatrix type="matrix" values="0 0 0 0 0.45098 0 0 0 0 0.792157 0 0 0 0 0.905882 0 0 0 0.42 0"/>
<feBlend mode="normal" in2="BackgroundImageFix" result="effect1_dropShadow_0_76"/>
<feBlend mode="normal" in="SourceGraphic" in2="effect1_dropShadow_0_76" result="shape"/>
</filter>
</defs>
</svg>
